<?xml version="1.0" encoding="UTF-8" standalone="no"?>
<!-- Created with Inkscape (http://www.inkscape.org/) -->

<svg
   xmlns:dc="http://purl.org/dc/elements/1.1/"
   xmlns:cc="http://creativecommons.org/ns#"
   xmlns:rdf="http://www.w3.org/1999/02/22-rdf-syntax-ns#"
   xmlns:svg="http://www.w3.org/2000/svg"
   xmlns="http://www.w3.org/2000/svg"
   xmlns:sodipodi="http://sodipodi.sourceforge.net/DTD/sodipodi-0.dtd"
   xmlns:inkscape="http://www.inkscape.org/namespaces/inkscape"
   width="2560"
   height="2560"
   viewBox="0 0 677.33332 677.33335"
   version="1.1"
   id="svg10501"
   inkscape:version="0.92.3 (2405546, 2018-03-11)"
   sodipodi:docname="MusicBackG.svg">
  <defs
     id="defs10495" />
  <sodipodi:namedview
     id="base"
     pagecolor="#ffffff"
     bordercolor="#666666"
     borderopacity="1.0"
     inkscape:pageopacity="0.0"
     inkscape:pageshadow="2"
     inkscape:zoom="0.175"
     inkscape:cx="1167.6759"
     inkscape:cy="1220.3155"
     inkscape:document-units="mm"
     inkscape:current-layer="layer1"
     showgrid="false"
     units="px"
     inkscape:snap-global="false"
     inkscape:window-width="1024"
     inkscape:window-height="705"
     inkscape:window-x="-8"
     inkscape:window-y="-8"
     inkscape:window-maximized="1" />
  <metadata
     id="metadata10498">
    <rdf:RDF>
      <cc:Work
         rdf:about="">
        <dc:format>image/svg+xml</dc:format>
        <dc:type
           rdf:resource="http://purl.org/dc/dcmitype/StillImage" />
        <dc:title></dc:title>
      </cc:Work>
    </rdf:RDF>
  </metadata>
  <g
     inkscape:label="Layer 1"
     inkscape:groupmode="layer"
     id="layer1"
     transform="translate(0,380.33335)">
    <rect
       style="opacity:1;fill:#06f5ed;fill-opacity:0.49246228;stroke:none;stroke-width:8.125;stroke-linejoin:round;stroke-miterlimit:4;stroke-dasharray:none;stroke-opacity:1"
       id="rect15544"
       width="677.33331"
       height="677.33331"
       x="0"
       y="-380.33334" />
    <rect
       style="opacity:1;fill:none;fill-opacity:1;stroke:#f173e5;stroke-width:10.1873188;stroke-linejoin:round;stroke-miterlimit:7;stroke-dasharray:none;stroke-opacity:1"
       id="rect10"
       width="195.06557"
       height="112.77248"
       x="104.94852"
       y="-147.38927"
       transform="rotate(-13.761122)" />
    <path
       style="fill:none;stroke:#f173e5;stroke-width:9.32680702;stroke-linecap:butt;stroke-linejoin:miter;stroke-miterlimit:4;stroke-dasharray:none;stroke-opacity:1"
       d="m 76.887702,-138.20618 185.766128,-45.4949"
       id="path817"
       inkscape:connector-curvature="0" />
    <circle
       style="opacity:1;fill:none;fill-opacity:1;stroke:#f173e5;stroke-width:8.125;stroke-linejoin:round;stroke-miterlimit:4;stroke-dasharray:none;stroke-opacity:1"
       id="path819"
       cx="142.49988"
       cy="-75.875069"
       r="27.999998"
       transform="rotate(-13.761122)" />
    <circle
       style="opacity:1;fill:none;fill-opacity:1;stroke:#f173e5;stroke-width:8.125;stroke-linejoin:round;stroke-miterlimit:4;stroke-dasharray:none;stroke-opacity:1"
       id="path819-2"
       cx="143.25583"
       cy="-75.875069"
       r="13"
       transform="rotate(-13.761122)" />
    <rect
       style="opacity:1;fill:none;fill-opacity:1;stroke:#f173e5;stroke-width:7.01296377;stroke-linejoin:round;stroke-miterlimit:4;stroke-dasharray:none;stroke-opacity:1"
       id="rect854"
       width="45.713223"
       height="30.594181"
       x="178.81589"
       y="-96.094772"
       transform="rotate(-13.761122)" />
    <rect
       style="opacity:1;fill:none;fill-opacity:1;stroke:#f173e5;stroke-width:8.125;stroke-linejoin:round;stroke-miterlimit:4;stroke-dasharray:none;stroke-opacity:1"
       id="rect891"
       width="4"
       height="4"
       x="182.59566"
       y="-54.161335"
       transform="rotate(-13.761122)" />
    <rect
       style="opacity:1;fill:none;fill-opacity:1;stroke:#f173e5;stroke-width:8.125;stroke-linejoin:round;stroke-miterlimit:4;stroke-dasharray:none;stroke-opacity:1"
       id="rect891-8"
       width="4"
       height="4"
       x="199.29453"
       y="-53.693516"
       transform="rotate(-13.761122)" />
    <rect
       style="opacity:1;fill:none;fill-opacity:1;stroke:#f173e5;stroke-width:8.125;stroke-linejoin:round;stroke-miterlimit:4;stroke-dasharray:none;stroke-opacity:1"
       id="rect891-8-4"
       width="4"
       height="4"
       x="217.43739"
       y="-53.693516"
       transform="rotate(-13.761122)" />
    <path
       style="fill:none;stroke:#f173e5;stroke-width:8.125;stroke-linecap:butt;stroke-linejoin:miter;stroke-miterlimit:4;stroke-dasharray:none;stroke-opacity:1"
       d="m 94.105023,-172.77618 -8.286774,-30.65882 140.976681,-34.52578 7.37269,30.1044"
       id="path923"
       inkscape:connector-curvature="0" />
    <circle
       style="opacity:1;fill:none;fill-opacity:1;stroke:#f173e5;stroke-width:8.125;stroke-linejoin:round;stroke-miterlimit:4;stroke-dasharray:none;stroke-opacity:1"
       id="path819-7"
       cx="261.49985"
       cy="-75.875069"
       r="27.999998"
       transform="rotate(-13.761122)" />
    <circle
       style="opacity:1;fill:none;fill-opacity:1;stroke:#f173e5;stroke-width:8.125;stroke-linejoin:round;stroke-miterlimit:4;stroke-dasharray:none;stroke-opacity:1"
       id="path819-2-1"
       cx="262.25583"
       cy="-75.875069"
       r="13"
       transform="rotate(-13.761122)" />
    <rect
       style="opacity:1;fill:none;fill-opacity:1;stroke:#f173e5;stroke-width:8.125;stroke-linejoin:round;stroke-miterlimit:4;stroke-dasharray:none;stroke-opacity:1"
       id="rect980"
       width="54.42857"
       height="6.0476193"
       x="231.53262"
       y="-133.67863"
       transform="rotate(-13.761122)" />
    <rect
       style="opacity:1;fill:none;fill-opacity:1;stroke:#f173e5;stroke-width:6.0515132;stroke-linejoin:round;stroke-miterlimit:4;stroke-dasharray:none;stroke-opacity:1"
       id="rect980-1"
       width="22.4842"
       height="8.1211061"
       x="118.61493"
       y="-134.71539"
       transform="rotate(-13.761122)" />
    <rect
       style="opacity:1;fill:none;fill-opacity:1;stroke:#f173e5;stroke-width:6.0515132;stroke-linejoin:round;stroke-miterlimit:4;stroke-dasharray:none;stroke-opacity:1"
       id="rect980-1-6"
       width="22.4842"
       height="8.1211061"
       x="150.7429"
       y="-134.71539"
       transform="rotate(-13.761122)" />
    <rect
       style="opacity:1;fill:none;fill-opacity:1;stroke:#f173e5;stroke-width:6.0515132;stroke-linejoin:round;stroke-miterlimit:4;stroke-dasharray:none;stroke-opacity:1"
       id="rect980-1-6-3"
       width="22.4842"
       height="8.1211061"
       x="183.24886"
       y="-134.71539"
       transform="rotate(-13.761122)" />
    <rect
       style="opacity:1;fill:none;fill-opacity:1;stroke:#f173e5;stroke-width:10.1873188;stroke-linejoin:round;stroke-miterlimit:7;stroke-dasharray:none;stroke-opacity:1"
       id="rect10-3"
       width="195.06557"
       height="112.77248"
       x="-608.74115"
       y="-53.73843"
       transform="matrix(-0.97129591,-0.23787444,-0.23787444,0.97129591,0,0)" />
    <path
       style="fill:none;stroke:#f173e5;stroke-width:9.32680702;stroke-linecap:butt;stroke-linejoin:miter;stroke-miterlimit:4;stroke-dasharray:none;stroke-opacity:1"
       d="M 594.03902,122.52502 408.2729,77.030122"
       id="path817-5"
       inkscape:connector-curvature="0" />
    <circle
       style="opacity:1;fill:none;fill-opacity:1;stroke:#f173e5;stroke-width:8.125;stroke-linejoin:round;stroke-miterlimit:4;stroke-dasharray:none;stroke-opacity:1"
       id="path819-6"
       cx="-571.18982"
       cy="17.775749"
       r="27.999998"
       transform="matrix(-0.97129591,-0.23787444,-0.23787444,0.97129591,0,0)" />
    <circle
       style="opacity:1;fill:none;fill-opacity:1;stroke:#f173e5;stroke-width:8.125;stroke-linejoin:round;stroke-miterlimit:4;stroke-dasharray:none;stroke-opacity:1"
       id="path819-2-2"
       cx="-570.43384"
       cy="17.775749"
       r="13"
       transform="matrix(-0.97129591,-0.23787444,-0.23787444,0.97129591,0,0)" />
    <rect
       style="opacity:1;fill:none;fill-opacity:1;stroke:#f173e5;stroke-width:7.01296377;stroke-linejoin:round;stroke-miterlimit:4;stroke-dasharray:none;stroke-opacity:1"
       id="rect854-7"
       width="45.713223"
       height="30.594181"
       x="-534.87378"
       y="-2.4439471"
       transform="matrix(-0.97129591,-0.23787444,-0.23787444,0.97129591,0,0)" />
    <rect
       style="opacity:1;fill:none;fill-opacity:1;stroke:#f173e5;stroke-width:8.125;stroke-linejoin:round;stroke-miterlimit:4;stroke-dasharray:none;stroke-opacity:1"
       id="rect891-6"
       width="4"
       height="4"
       x="-531.09399"
       y="39.489494"
       transform="matrix(-0.97129591,-0.23787444,-0.23787444,0.97129591,0,0)" />
    <rect
       style="opacity:1;fill:none;fill-opacity:1;stroke:#f173e5;stroke-width:8.125;stroke-linejoin:round;stroke-miterlimit:4;stroke-dasharray:none;stroke-opacity:1"
       id="rect891-8-2"
       width="4"
       height="4"
       x="-514.39514"
       y="39.957314"
       transform="matrix(-0.97129591,-0.23787444,-0.23787444,0.97129591,0,0)" />
    <rect
       style="opacity:1;fill:none;fill-opacity:1;stroke:#f173e5;stroke-width:8.125;stroke-linejoin:round;stroke-miterlimit:4;stroke-dasharray:none;stroke-opacity:1"
       id="rect891-8-4-7"
       width="4"
       height="4"
       x="-496.25229"
       y="39.957314"
       transform="matrix(-0.97129591,-0.23787444,-0.23787444,0.97129591,0,0)" />
    <path
       style="fill:none;stroke:#f173e5;stroke-width:8.125;stroke-linecap:butt;stroke-linejoin:miter;stroke-miterlimit:4;stroke-dasharray:none;stroke-opacity:1"
       d="M 576.8217,87.955022 585.10848,57.296192 444.1318,22.77041 436.75911,52.874812"
       id="path923-0"
       inkscape:connector-curvature="0" />
    <circle
       style="opacity:1;fill:none;fill-opacity:1;stroke:#f173e5;stroke-width:8.125;stroke-linejoin:round;stroke-miterlimit:4;stroke-dasharray:none;stroke-opacity:1"
       id="path819-7-6"
       cx="-452.18982"
       cy="17.775749"
       r="27.999998"
       transform="matrix(-0.97129591,-0.23787444,-0.23787444,0.97129591,0,0)" />
    <circle
       style="opacity:1;fill:none;fill-opacity:1;stroke:#f173e5;stroke-width:8.125;stroke-linejoin:round;stroke-miterlimit:4;stroke-dasharray:none;stroke-opacity:1"
       id="path819-2-1-8"
       cx="-451.43384"
       cy="17.775749"
       r="13"
       transform="matrix(-0.97129591,-0.23787444,-0.23787444,0.97129591,0,0)" />
    <rect
       style="opacity:1;fill:none;fill-opacity:1;stroke:#f173e5;stroke-width:8.125;stroke-linejoin:round;stroke-miterlimit:4;stroke-dasharray:none;stroke-opacity:1"
       id="rect980-13"
       width="54.42857"
       height="6.0476193"
       x="-482.15704"
       y="-40.027794"
       transform="matrix(-0.97129591,-0.23787444,-0.23787444,0.97129591,0,0)" />
    <rect
       style="opacity:1;fill:none;fill-opacity:1;stroke:#f173e5;stroke-width:6.0515132;stroke-linejoin:round;stroke-miterlimit:4;stroke-dasharray:none;stroke-opacity:1"
       id="rect980-1-5"
       width="22.4842"
       height="8.1211061"
       x="-595.07477"
       y="-41.064568"
       transform="matrix(-0.97129591,-0.23787444,-0.23787444,0.97129591,0,0)" />
    <rect
       style="opacity:1;fill:none;fill-opacity:1;stroke:#f173e5;stroke-width:6.0515132;stroke-linejoin:round;stroke-miterlimit:4;stroke-dasharray:none;stroke-opacity:1"
       id="rect980-1-6-8"
       width="22.4842"
       height="8.1211061"
       x="-562.94678"
       y="-41.064568"
       transform="matrix(-0.97129591,-0.23787444,-0.23787444,0.97129591,0,0)" />
    <rect
       style="opacity:1;fill:none;fill-opacity:1;stroke:#f173e5;stroke-width:6.0515132;stroke-linejoin:round;stroke-miterlimit:4;stroke-dasharray:none;stroke-opacity:1"
       id="rect980-1-6-3-3"
       width="22.4842"
       height="8.1211061"
       x="-530.4408"
       y="-41.064568"
       transform="matrix(-0.97129591,-0.23787444,-0.23787444,0.97129591,0,0)" />
    <g
       id="use9594"
       style="fill:#f173e5;fill-opacity:1"
       transform="matrix(2.6408993,0,0,2.6408993,474.14804,-3765.1975)">
      <title
         id="title15235">Beamed notes 32B</title>
      <path
         id="path15237"
         inkscape:connector-curvature="0"
         d="M 5.4343512,0 V 14.81926 C 4.689258,14.165024 3.2424899,14.071124 1.9632292,14.611509 0.39425007,15.27429 -0.32755972,16.639222 0.14112306,17.748806 0.60983257,18.858415 2.091314,19.292649 3.6602935,18.629868 5.1550835,17.99844 6.1869055,16.600091 5.8761789,15.509663 V 5.1722867 l 8.8180601,2.1621485 v 9.7332538 c -0.745226,-0.653786 -2.192179,-0.747475 -3.471096,-0.207222 -1.5690052,0.662781 -2.2903123,2.027687 -1.8216029,3.137297 0.4686829,1.10961 1.9501649,1.543844 3.5191699,0.881062 1.495372,-0.631719 2.527538,-2.0311 2.215356,-3.121765 V 2.2489583 Z M 5.8761789,1.55702 14.694239,3.8059783 V 4.454525 L 5.8761789,2.2923765 Z m 0,1.7631833 8.8180601,2.1621486 V 6.3066083 L 5.8761789,4.1444598 Z"
         style="stroke-width:0.26458332" />
    </g>
    <g
       id="use9627"
       style="fill:#f173e5;fill-opacity:1"
       transform="matrix(3.6817302,0,0,3.6817302,70.055683,-4660.9869)">
      <title
         id="title15241">G clef</title>
      <path
         id="path15243"
         inkscape:connector-curvature="0"
         d="m 1.7361593,28.402465 c 0.075009,-0.853202 0.616294,-1.549082 1.3781876,-1.750695 0.9213056,-0.243673 1.6601017,0.331497 1.9637904,0.966602 0.2573073,0.537793 0.2563019,1.233488 -0.042995,1.69508 -0.3839104,0.591503 -1.1285008,0.913686 -1.7127802,0.724297 -0.024871,0.56941 0.8694738,1.014386 1.7122775,0.949193 1.1722894,-0.09099 2.025994,-0.7366 2.3517754,-1.788584 C 7.68722,28.226755 7.5359313,27.204167 7.4184298,26.440191 7.3544271,26.024398 7.2044348,24.827264 7.0633325,24.109582 5.5801313,24.488968 3.9765446,24.165568 2.5999445,23.131894 1.2613645,22.126953 0.30595411,20.489209 0.07026333,18.674088 -0.13603229,17.085239 0.12124854,15.837675 0.71976245,14.725526 2.0759637,12.205819 4.0611584,10.713437 5.2258277,9.5619967 4.9760346,8.0487917 4.8457538,6.4182175 5.0076523,5.1075246 5.2227321,3.3663281 6.0068248,1.0454037 7.4289338,0.12404524 7.7448198,-0.08068934 8.0508105,-0.04391226 8.263218,0.32393784 8.9422182,1.4999049 9.3393048,3.0995223 9.4662255,4.4052411 9.6258221,6.0475627 9.095703,8.0087602 8.4766044,9.0807725 7.7122232,10.404562 7.0994217,11.185771 6.1363384,12.060722 c 0.055986,0.694901 0.2505868,1.998159 0.3954991,3.11269 2.6432669,-0.148193 3.9148015,1.724422 4.1956835,3.460459 0.437991,2.706106 -1.4053083,4.559221 -3.0536889,5.239597 0.020108,0.341895 0.2093913,1.697699 0.303874,2.27883 0.2811198,1.727959 0.3098006,3.000949 -0.438785,4.108257 C 6.9404336,31.145348 6.0777332,31.530052 5.0060384,31.569448 3.0621446,31.641441 1.600772,29.939456 1.7365562,28.402465 Z M 4.292854,19.292631 c -0.2226204,1.102095 0.09398,1.755722 1.0393892,2.384319 0.5281877,0.35097 0.3250935,0.72943 -0.458814,0.219154 C 3.77054,21.178025 3.2016594,19.9307 3.280955,18.660488 3.387344,16.956069 4.7183305,15.703267 5.9794405,15.280886 5.8633413,14.379318 5.7538302,13.472776 5.614633,12.511704 4.5345509,13.294871 3.4494417,14.296689 2.7160432,15.219582 1.723671,16.468283 1.1762745,17.746485 1.1889745,19.086494 c 0.023019,2.4452 1.8422668,3.992854 3.512158,4.42296 0.8243094,0.212302 1.7559867,0.1846 2.3297886,-0.01296 C 6.8904273,22.706073 6.215925,17.886132 6.215925,17.351251 5.2958365,17.630016 4.468749,18.421226 4.292854,19.292419 Z m 5.1938767,0.450585 C 9.1098052,18.140238 7.9949305,17.371147 6.8028238,17.306298 c 0.1549135,1.110827 0.7145073,5.373899 0.8129058,6.02959 1.4286707,-0.729801 2.1672021,-2.332858 1.8710011,-3.592672 z M 7.9699273,2.7626813 C 6.850634,2.5760976 5.9171311,4.7287206 5.7295415,5.9929792 5.5632244,7.1133044 5.5795227,8.073345 5.7536186,9.1074425 6.8780977,8.2481023 7.8979871,7.0848352 8.444193,5.8235136 8.8028886,4.9949709 9.3379819,2.9907786 7.9696098,2.7627077 Z"
         style="stroke-width:0.26458332" />
    </g>
    <g
       id="use9652"
       style="fill:#f173e5;fill-opacity:1"
       transform="matrix(5.2056476,0,0,5.2056476,496.58306,-6784.7537)">
      <title
         id="title15247">Flat</title>
      <path
         id="path15249"
         d="M 0.55438146,10.243722 V 7.4596202 C 0.61007625,7.1930419 1.0224294,6.7071505 1.3087085,6.6886058 1.9527837,6.64709 2.2742525,7.4513149 1.9797977,8.2734759 1.7497954,8.9156408 1.0509515,9.7512743 0.55438146,10.243722 Z M 2.6107231,8.9619402 C 2.8673954,8.7166212 3.4052933,8.0516121 3.3085617,7.2285807 3.2090519,6.3819961 2.4742246,6.0242106 2.0155165,6.0242106 c -0.4392878,0 -0.8898996,0.2116217 -1.46113504,0.6358334 V 0 L 0,0.06106319 V 11.324058 C 1.1054027,10.310633 1.6585671,9.8725276 2.6107231,8.9624244 Z"
         inkscape:connector-curvature="0"
         sodipodi:nodetypes="ccsscsssccccs"
         style="stroke-width:0.26458332" />
    </g>
    <g
       id="use9594-0"
       style="fill:#f173e5;fill-opacity:1"
       transform="matrix(2.6408993,0,0,2.6408993,474.14804,-3765.1975)">
      <title
         id="title15283">Beamed notes 32B</title>
      <path
         id="path15285"
         inkscape:connector-curvature="0"
         d="M 5.4343512,0 V 14.81926 C 4.689258,14.165024 3.2424899,14.071124 1.9632292,14.611509 0.39425007,15.27429 -0.32755972,16.639222 0.14112306,17.748806 0.60983257,18.858415 2.091314,19.292649 3.6602935,18.629868 5.1550835,17.99844 6.1869055,16.600091 5.8761789,15.509663 V 5.1722867 l 8.8180601,2.1621485 v 9.7332538 c -0.745226,-0.653786 -2.192179,-0.747475 -3.471096,-0.207222 -1.5690052,0.662781 -2.2903123,2.027687 -1.8216029,3.137297 0.4686829,1.10961 1.9501649,1.543844 3.5191699,0.881062 1.495372,-0.631719 2.527538,-2.0311 2.215356,-3.121765 V 2.2489583 Z M 5.8761789,1.55702 14.694239,3.8059783 V 4.454525 L 5.8761789,2.2923765 Z m 0,1.7631833 8.8180601,2.1621486 V 6.3066083 L 5.8761789,4.1444598 Z"
         style="stroke-width:0.26458332" />
    </g>
    <g
       id="use9627-6"
       style="fill:#f173e5;fill-opacity:1"
       transform="matrix(3.6817302,0,0,3.6817302,70.055683,-4660.9869)">
      <title
         id="title15289">G clef</title>
      <path
         id="path15291"
         inkscape:connector-curvature="0"
         d="m 1.7361593,28.402465 c 0.075009,-0.853202 0.616294,-1.549082 1.3781876,-1.750695 0.9213056,-0.243673 1.6601017,0.331497 1.9637904,0.966602 0.2573073,0.537793 0.2563019,1.233488 -0.042995,1.69508 -0.3839104,0.591503 -1.1285008,0.913686 -1.7127802,0.724297 -0.024871,0.56941 0.8694738,1.014386 1.7122775,0.949193 1.1722894,-0.09099 2.025994,-0.7366 2.3517754,-1.788584 C 7.68722,28.226755 7.5359313,27.204167 7.4184298,26.440191 7.3544271,26.024398 7.2044348,24.827264 7.0633325,24.109582 5.5801313,24.488968 3.9765446,24.165568 2.5999445,23.131894 1.2613645,22.126953 0.30595411,20.489209 0.07026333,18.674088 -0.13603229,17.085239 0.12124854,15.837675 0.71976245,14.725526 2.0759637,12.205819 4.0611584,10.713437 5.2258277,9.5619967 4.9760346,8.0487917 4.8457538,6.4182175 5.0076523,5.1075246 5.2227321,3.3663281 6.0068248,1.0454037 7.4289338,0.12404524 7.7448198,-0.08068934 8.0508105,-0.04391226 8.263218,0.32393784 8.9422182,1.4999049 9.3393048,3.0995223 9.4662255,4.4052411 9.6258221,6.0475627 9.095703,8.0087602 8.4766044,9.0807725 7.7122232,10.404562 7.0994217,11.185771 6.1363384,12.060722 c 0.055986,0.694901 0.2505868,1.998159 0.3954991,3.11269 2.6432669,-0.148193 3.9148015,1.724422 4.1956835,3.460459 0.437991,2.706106 -1.4053083,4.559221 -3.0536889,5.239597 0.020108,0.341895 0.2093913,1.697699 0.303874,2.27883 0.2811198,1.727959 0.3098006,3.000949 -0.438785,4.108257 C 6.9404336,31.145348 6.0777332,31.530052 5.0060384,31.569448 3.0621446,31.641441 1.600772,29.939456 1.7365562,28.402465 Z M 4.292854,19.292631 c -0.2226204,1.102095 0.09398,1.755722 1.0393892,2.384319 0.5281877,0.35097 0.3250935,0.72943 -0.458814,0.219154 C 3.77054,21.178025 3.2016594,19.9307 3.280955,18.660488 3.387344,16.956069 4.7183305,15.703267 5.9794405,15.280886 5.8633413,14.379318 5.7538302,13.472776 5.614633,12.511704 4.5345509,13.294871 3.4494417,14.296689 2.7160432,15.219582 1.723671,16.468283 1.1762745,17.746485 1.1889745,19.086494 c 0.023019,2.4452 1.8422668,3.992854 3.512158,4.42296 0.8243094,0.212302 1.7559867,0.1846 2.3297886,-0.01296 C 6.8904273,22.706073 6.215925,17.886132 6.215925,17.351251 5.2958365,17.630016 4.468749,18.421226 4.292854,19.292419 Z m 5.1938767,0.450585 C 9.1098052,18.140238 7.9949305,17.371147 6.8028238,17.306298 c 0.1549135,1.110827 0.7145073,5.373899 0.8129058,6.02959 1.4286707,-0.729801 2.1672021,-2.332858 1.8710011,-3.592672 z M 7.9699273,2.7626813 C 6.850634,2.5760976 5.9171311,4.7287206 5.7295415,5.9929792 5.5632244,7.1133044 5.5795227,8.073345 5.7536186,9.1074425 6.8780977,8.2481023 7.8979871,7.0848352 8.444193,5.8235136 8.8028886,4.9949709 9.3379819,2.9907786 7.9696098,2.7627077 Z"
         style="stroke-width:0.26458332" />
    </g>
    <g
       id="use9652-2"
       style="fill:#f173e5;fill-opacity:1"
       transform="matrix(5.2056476,0,0,5.2056476,496.58306,-6784.7537)">
      <title
         id="title15295">Flat</title>
      <path
         id="path15297"
         d="M 0.55438146,10.243722 V 7.4596202 C 0.61007625,7.1930419 1.0224294,6.7071505 1.3087085,6.6886058 1.9527837,6.64709 2.2742525,7.4513149 1.9797977,8.2734759 1.7497954,8.9156408 1.0509515,9.7512743 0.55438146,10.243722 Z M 2.6107231,8.9619402 C 2.8673954,8.7166212 3.4052933,8.0516121 3.3085617,7.2285807 3.2090519,6.3819961 2.4742246,6.0242106 2.0155165,6.0242106 c -0.4392878,0 -0.8898996,0.2116217 -1.46113504,0.6358334 V 0 L 0,0.06106319 V 11.324058 C 1.1054027,10.310633 1.6585671,9.8725276 2.6107231,8.9624244 Z"
         inkscape:connector-curvature="0"
         sodipodi:nodetypes="ccsscsssccccs"
         style="stroke-width:0.26458332" />
    </g>
    <g
       id="use9627-2"
       style="fill:#f173e5;fill-opacity:1"
       transform="matrix(4.0868471,0,0,4.0868471,29.516961,15.527385)">
      <title
         id="title15319">G clef</title>
      <path
         id="path15321"
         inkscape:connector-curvature="0"
         d="m 1.7361593,28.402465 c 0.075009,-0.853202 0.616294,-1.549082 1.3781876,-1.750695 0.9213056,-0.243673 1.6601017,0.331497 1.9637904,0.966602 0.2573073,0.537793 0.2563019,1.233488 -0.042995,1.69508 -0.3839104,0.591503 -1.1285008,0.913686 -1.7127802,0.724297 -0.024871,0.56941 0.8694738,1.014386 1.7122775,0.949193 1.1722894,-0.09099 2.025994,-0.7366 2.3517754,-1.788584 C 7.68722,28.226755 7.5359313,27.204167 7.4184298,26.440191 7.3544271,26.024398 7.2044348,24.827264 7.0633325,24.109582 5.5801313,24.488968 3.9765446,24.165568 2.5999445,23.131894 1.2613645,22.126953 0.30595411,20.489209 0.07026333,18.674088 -0.13603229,17.085239 0.12124854,15.837675 0.71976245,14.725526 2.0759637,12.205819 4.0611584,10.713437 5.2258277,9.5619967 4.9760346,8.0487917 4.8457538,6.4182175 5.0076523,5.1075246 5.2227321,3.3663281 6.0068248,1.0454037 7.4289338,0.12404524 7.7448198,-0.08068934 8.0508105,-0.04391226 8.263218,0.32393784 8.9422182,1.4999049 9.3393048,3.0995223 9.4662255,4.4052411 9.6258221,6.0475627 9.095703,8.0087602 8.4766044,9.0807725 7.7122232,10.404562 7.0994217,11.185771 6.1363384,12.060722 c 0.055986,0.694901 0.2505868,1.998159 0.3954991,3.11269 2.6432669,-0.148193 3.9148015,1.724422 4.1956835,3.460459 0.437991,2.706106 -1.4053083,4.559221 -3.0536889,5.239597 0.020108,0.341895 0.2093913,1.697699 0.303874,2.27883 0.2811198,1.727959 0.3098006,3.000949 -0.438785,4.108257 C 6.9404336,31.145348 6.0777332,31.530052 5.0060384,31.569448 3.0621446,31.641441 1.600772,29.939456 1.7365562,28.402465 Z M 4.292854,19.292631 c -0.2226204,1.102095 0.09398,1.755722 1.0393892,2.384319 0.5281877,0.35097 0.3250935,0.72943 -0.458814,0.219154 C 3.77054,21.178025 3.2016594,19.9307 3.280955,18.660488 3.387344,16.956069 4.7183305,15.703267 5.9794405,15.280886 5.8633413,14.379318 5.7538302,13.472776 5.614633,12.511704 4.5345509,13.294871 3.4494417,14.296689 2.7160432,15.219582 1.723671,16.468283 1.1762745,17.746485 1.1889745,19.086494 c 0.023019,2.4452 1.8422668,3.992854 3.512158,4.42296 0.8243094,0.212302 1.7559867,0.1846 2.3297886,-0.01296 C 6.8904273,22.706073 6.215925,17.886132 6.215925,17.351251 5.2958365,17.630016 4.468749,18.421226 4.292854,19.292419 Z m 5.1938767,0.450585 C 9.1098052,18.140238 7.9949305,17.371147 6.8028238,17.306298 c 0.1549135,1.110827 0.7145073,5.373899 0.8129058,6.02959 1.4286707,-0.729801 2.1672021,-2.332858 1.8710011,-3.592672 z M 7.9699273,2.7626813 C 6.850634,2.5760976 5.9171311,4.7287206 5.7295415,5.9929792 5.5632244,7.1133044 5.5795227,8.073345 5.7536186,9.1074425 6.8780977,8.2481023 7.8979871,7.0848352 8.444193,5.8235136 8.8028886,4.9949709 9.3379819,2.9907786 7.9696098,2.7627077 Z"
         style="stroke-width:0.26458332" />
    </g>
    <g
       id="use9594-9"
       style="fill:#f173e5;fill-opacity:1"
       transform="matrix(5.1220318,0,0,5.1220318,430.121,-148.85619)">
      <title
         id="title15343">Beamed notes 32B</title>
      <path
         id="path15345"
         inkscape:connector-curvature="0"
         d="M 5.4343512,0 V 14.81926 C 4.689258,14.165024 3.2424899,14.071124 1.9632292,14.611509 0.39425007,15.27429 -0.32755972,16.639222 0.14112306,17.748806 0.60983257,18.858415 2.091314,19.292649 3.6602935,18.629868 5.1550835,17.99844 6.1869055,16.600091 5.8761789,15.509663 V 5.1722867 l 8.8180601,2.1621485 v 9.7332538 c -0.745226,-0.653786 -2.192179,-0.747475 -3.471096,-0.207222 -1.5690052,0.662781 -2.2903123,2.027687 -1.8216029,3.137297 0.4686829,1.10961 1.9501649,1.543844 3.5191699,0.881062 1.495372,-0.631719 2.527538,-2.0311 2.215356,-3.121765 V 2.2489583 Z M 5.8761789,1.55702 14.694239,3.8059783 V 4.454525 L 5.8761789,2.2923765 Z m 0,1.7631833 8.8180601,2.1621486 V 6.3066083 L 5.8761789,4.1444598 Z"
         style="stroke-width:0.26458332" />
    </g>
    <g
       id="use9652-5"
       style="fill:#f173e5;fill-opacity:1"
       transform="matrix(12.191851,0,0,12.191851,593.40406,-103.89373)">
      <title
         id="title15367">Flat</title>
      <path
         id="path15369"
         d="M 0.55438146,10.243722 V 7.4596202 C 0.61007625,7.1930419 1.0224294,6.7071505 1.3087085,6.6886058 1.9527837,6.64709 2.2742525,7.4513149 1.9797977,8.2734759 1.7497954,8.9156408 1.0509515,9.7512743 0.55438146,10.243722 Z M 2.6107231,8.9619402 C 2.8673954,8.7166212 3.4052933,8.0516121 3.3085617,7.2285807 3.2090519,6.3819961 2.4742246,6.0242106 2.0155165,6.0242106 c -0.4392878,0 -0.8898996,0.2116217 -1.46113504,0.6358334 V 0 L 0,0.06106319 V 11.324058 C 1.1054027,10.310633 1.6585671,9.8725276 2.6107231,8.9624244 Z"
         inkscape:connector-curvature="0"
         sodipodi:nodetypes="ccsscsssccccs"
         style="stroke-width:0.26458332" />
    </g>
    <g
       id="use9594-9-4"
       style="fill:#f173e5;fill-opacity:1"
       transform="matrix(5.1220317,0,0,5.1220317,268.00997,144.45333)">
      <title
         id="title15343-4">Beamed notes 32B</title>
      <path
         id="path15345-6"
         inkscape:connector-curvature="0"
         d="M 5.4343512,0 V 14.81926 C 4.689258,14.165024 3.2424899,14.071124 1.9632292,14.611509 0.39425007,15.27429 -0.32755972,16.639222 0.14112306,17.748806 0.60983257,18.858415 2.091314,19.292649 3.6602935,18.629868 5.1550835,17.99844 6.1869055,16.600091 5.8761789,15.509663 V 5.1722867 l 8.8180601,2.1621485 v 9.7332538 c -0.745226,-0.653786 -2.192179,-0.747475 -3.471096,-0.207222 -1.5690052,0.662781 -2.2903123,2.027687 -1.8216029,3.137297 0.4686829,1.10961 1.9501649,1.543844 3.5191699,0.881062 1.495372,-0.631719 2.527538,-2.0311 2.215356,-3.121765 V 2.2489583 Z M 5.8761789,1.55702 14.694239,3.8059783 V 4.454525 L 5.8761789,2.2923765 Z m 0,1.7631833 8.8180601,2.1621486 V 6.3066083 L 5.8761789,4.1444598 Z"
         style="stroke-width:0.26458332" />
    </g>
    <g
       id="use9594-9-5"
       style="fill:#f173e5;fill-opacity:1"
       transform="matrix(5.1220317,0,0,5.1220317,29.129017,-360.52286)">
      <title
         id="title15343-7">Beamed notes 32B</title>
      <path
         id="path15345-3"
         inkscape:connector-curvature="0"
         d="M 5.4343512,0 V 14.81926 C 4.689258,14.165024 3.2424899,14.071124 1.9632292,14.611509 0.39425007,15.27429 -0.32755972,16.639222 0.14112306,17.748806 0.60983257,18.858415 2.091314,19.292649 3.6602935,18.629868 5.1550835,17.99844 6.1869055,16.600091 5.8761789,15.509663 V 5.1722867 l 8.8180601,2.1621485 v 9.7332538 c -0.745226,-0.653786 -2.192179,-0.747475 -3.471096,-0.207222 -1.5690052,0.662781 -2.2903123,2.027687 -1.8216029,3.137297 0.4686829,1.10961 1.9501649,1.543844 3.5191699,0.881062 1.495372,-0.631719 2.527538,-2.0311 2.215356,-3.121765 V 2.2489583 Z M 5.8761789,1.55702 14.694239,3.8059783 V 4.454525 L 5.8761789,2.2923765 Z m 0,1.7631833 8.8180601,2.1621486 V 6.3066083 L 5.8761789,4.1444598 Z"
         style="stroke-width:0.26458332" />
    </g>
    <g
       id="use9627-2-4"
       style="fill:#f173e5;fill-opacity:1"
       transform="matrix(4.086847,0,0,4.086847,614.45729,144.79524)">
      <title
         id="title15319-3">G clef</title>
      <path
         id="path15321-7"
         inkscape:connector-curvature="0"
         d="m 1.7361593,28.402465 c 0.075009,-0.853202 0.616294,-1.549082 1.3781876,-1.750695 0.9213056,-0.243673 1.6601017,0.331497 1.9637904,0.966602 0.2573073,0.537793 0.2563019,1.233488 -0.042995,1.69508 -0.3839104,0.591503 -1.1285008,0.913686 -1.7127802,0.724297 -0.024871,0.56941 0.8694738,1.014386 1.7122775,0.949193 1.1722894,-0.09099 2.025994,-0.7366 2.3517754,-1.788584 C 7.68722,28.226755 7.5359313,27.204167 7.4184298,26.440191 7.3544271,26.024398 7.2044348,24.827264 7.0633325,24.109582 5.5801313,24.488968 3.9765446,24.165568 2.5999445,23.131894 1.2613645,22.126953 0.30595411,20.489209 0.07026333,18.674088 -0.13603229,17.085239 0.12124854,15.837675 0.71976245,14.725526 2.0759637,12.205819 4.0611584,10.713437 5.2258277,9.5619967 4.9760346,8.0487917 4.8457538,6.4182175 5.0076523,5.1075246 5.2227321,3.3663281 6.0068248,1.0454037 7.4289338,0.12404524 7.7448198,-0.08068934 8.0508105,-0.04391226 8.263218,0.32393784 8.9422182,1.4999049 9.3393048,3.0995223 9.4662255,4.4052411 9.6258221,6.0475627 9.095703,8.0087602 8.4766044,9.0807725 7.7122232,10.404562 7.0994217,11.185771 6.1363384,12.060722 c 0.055986,0.694901 0.2505868,1.998159 0.3954991,3.11269 2.6432669,-0.148193 3.9148015,1.724422 4.1956835,3.460459 0.437991,2.706106 -1.4053083,4.559221 -3.0536889,5.239597 0.020108,0.341895 0.2093913,1.697699 0.303874,2.27883 0.2811198,1.727959 0.3098006,3.000949 -0.438785,4.108257 C 6.9404336,31.145348 6.0777332,31.530052 5.0060384,31.569448 3.0621446,31.641441 1.600772,29.939456 1.7365562,28.402465 Z M 4.292854,19.292631 c -0.2226204,1.102095 0.09398,1.755722 1.0393892,2.384319 0.5281877,0.35097 0.3250935,0.72943 -0.458814,0.219154 C 3.77054,21.178025 3.2016594,19.9307 3.280955,18.660488 3.387344,16.956069 4.7183305,15.703267 5.9794405,15.280886 5.8633413,14.379318 5.7538302,13.472776 5.614633,12.511704 4.5345509,13.294871 3.4494417,14.296689 2.7160432,15.219582 1.723671,16.468283 1.1762745,17.746485 1.1889745,19.086494 c 0.023019,2.4452 1.8422668,3.992854 3.512158,4.42296 0.8243094,0.212302 1.7559867,0.1846 2.3297886,-0.01296 C 6.8904273,22.706073 6.215925,17.886132 6.215925,17.351251 5.2958365,17.630016 4.468749,18.421226 4.292854,19.292419 Z m 5.1938767,0.450585 C 9.1098052,18.140238 7.9949305,17.371147 6.8028238,17.306298 c 0.1549135,1.110827 0.7145073,5.373899 0.8129058,6.02959 1.4286707,-0.729801 2.1672021,-2.332858 1.8710011,-3.592672 z M 7.9699273,2.7626813 C 6.850634,2.5760976 5.9171311,4.7287206 5.7295415,5.9929792 5.5632244,7.1133044 5.5795227,8.073345 5.7536186,9.1074425 6.8780977,8.2481023 7.8979871,7.0848352 8.444193,5.8235136 8.8028886,4.9949709 9.3379819,2.9907786 7.9696098,2.7627077 Z"
         style="stroke-width:0.26458332" />
    </g>
    <g
       id="use9627-2-3"
       style="fill:#f173e5;fill-opacity:1"
       transform="matrix(4.086847,0,0,4.086847,351.38586,-354.13334)">
      <title
         id="title15319-4">G clef</title>
      <path
         id="path15321-74"
         inkscape:connector-curvature="0"
         d="m 1.7361593,28.402465 c 0.075009,-0.853202 0.616294,-1.549082 1.3781876,-1.750695 0.9213056,-0.243673 1.6601017,0.331497 1.9637904,0.966602 0.2573073,0.537793 0.2563019,1.233488 -0.042995,1.69508 -0.3839104,0.591503 -1.1285008,0.913686 -1.7127802,0.724297 -0.024871,0.56941 0.8694738,1.014386 1.7122775,0.949193 1.1722894,-0.09099 2.025994,-0.7366 2.3517754,-1.788584 C 7.68722,28.226755 7.5359313,27.204167 7.4184298,26.440191 7.3544271,26.024398 7.2044348,24.827264 7.0633325,24.109582 5.5801313,24.488968 3.9765446,24.165568 2.5999445,23.131894 1.2613645,22.126953 0.30595411,20.489209 0.07026333,18.674088 -0.13603229,17.085239 0.12124854,15.837675 0.71976245,14.725526 2.0759637,12.205819 4.0611584,10.713437 5.2258277,9.5619967 4.9760346,8.0487917 4.8457538,6.4182175 5.0076523,5.1075246 5.2227321,3.3663281 6.0068248,1.0454037 7.4289338,0.12404524 7.7448198,-0.08068934 8.0508105,-0.04391226 8.263218,0.32393784 8.9422182,1.4999049 9.3393048,3.0995223 9.4662255,4.4052411 9.6258221,6.0475627 9.095703,8.0087602 8.4766044,9.0807725 7.7122232,10.404562 7.0994217,11.185771 6.1363384,12.060722 c 0.055986,0.694901 0.2505868,1.998159 0.3954991,3.11269 2.6432669,-0.148193 3.9148015,1.724422 4.1956835,3.460459 0.437991,2.706106 -1.4053083,4.559221 -3.0536889,5.239597 0.020108,0.341895 0.2093913,1.697699 0.303874,2.27883 0.2811198,1.727959 0.3098006,3.000949 -0.438785,4.108257 C 6.9404336,31.145348 6.0777332,31.530052 5.0060384,31.569448 3.0621446,31.641441 1.600772,29.939456 1.7365562,28.402465 Z M 4.292854,19.292631 c -0.2226204,1.102095 0.09398,1.755722 1.0393892,2.384319 0.5281877,0.35097 0.3250935,0.72943 -0.458814,0.219154 C 3.77054,21.178025 3.2016594,19.9307 3.280955,18.660488 3.387344,16.956069 4.7183305,15.703267 5.9794405,15.280886 5.8633413,14.379318 5.7538302,13.472776 5.614633,12.511704 4.5345509,13.294871 3.4494417,14.296689 2.7160432,15.219582 1.723671,16.468283 1.1762745,17.746485 1.1889745,19.086494 c 0.023019,2.4452 1.8422668,3.992854 3.512158,4.42296 0.8243094,0.212302 1.7559867,0.1846 2.3297886,-0.01296 C 6.8904273,22.706073 6.215925,17.886132 6.215925,17.351251 5.2958365,17.630016 4.468749,18.421226 4.292854,19.292419 Z m 5.1938767,0.450585 C 9.1098052,18.140238 7.9949305,17.371147 6.8028238,17.306298 c 0.1549135,1.110827 0.7145073,5.373899 0.8129058,6.02959 1.4286707,-0.729801 2.1672021,-2.332858 1.8710011,-3.592672 z M 7.9699273,2.7626813 C 6.850634,2.5760976 5.9171311,4.7287206 5.7295415,5.9929792 5.5632244,7.1133044 5.5795227,8.073345 5.7536186,9.1074425 6.8780977,8.2481023 7.8979871,7.0848352 8.444193,5.8235136 8.8028886,4.9949709 9.3379819,2.9907786 7.9696098,2.7627077 Z"
         style="stroke-width:0.26458332" />
    </g>
    <g
       id="use9652-5-6"
       style="fill:#f173e5;fill-opacity:1"
       transform="matrix(12.191851,0,0,12.191851,347.15399,-143.95921)">
      <title
         id="title15367-6">Flat</title>
      <path
         id="path15369-7"
         d="M 0.55438146,10.243722 V 7.4596202 C 0.61007625,7.1930419 1.0224294,6.7071505 1.3087085,6.6886058 1.9527837,6.64709 2.2742525,7.4513149 1.9797977,8.2734759 1.7497954,8.9156408 1.0509515,9.7512743 0.55438146,10.243722 Z M 2.6107231,8.9619402 C 2.8673954,8.7166212 3.4052933,8.0516121 3.3085617,7.2285807 3.2090519,6.3819961 2.4742246,6.0242106 2.0155165,6.0242106 c -0.4392878,0 -0.8898996,0.2116217 -1.46113504,0.6358334 V 0 L 0,0.06106319 V 11.324058 C 1.1054027,10.310633 1.6585671,9.8725276 2.6107231,8.9624244 Z"
         inkscape:connector-curvature="0"
         sodipodi:nodetypes="ccsscsssccccs"
         style="stroke-width:0.26458332" />
    </g>
    <g
       id="use9652-5-1"
       style="fill:#f173e5;fill-opacity:1"
       transform="matrix(12.191851,0,0,12.191851,153.63019,141.7908)">
      <title
         id="title15367-4">Flat</title>
      <path
         id="path15369-77"
         d="M 0.55438146,10.243722 V 7.4596202 C 0.61007625,7.1930419 1.0224294,6.7071505 1.3087085,6.6886058 1.9527837,6.64709 2.2742525,7.4513149 1.9797977,8.2734759 1.7497954,8.9156408 1.0509515,9.7512743 0.55438146,10.243722 Z M 2.6107231,8.9619402 C 2.8673954,8.7166212 3.4052933,8.0516121 3.3085617,7.2285807 3.2090519,6.3819961 2.4742246,6.0242106 2.0155165,6.0242106 c -0.4392878,0 -0.8898996,0.2116217 -1.46113504,0.6358334 V 0 L 0,0.06106319 V 11.324058 C 1.1054027,10.310633 1.6585671,9.8725276 2.6107231,8.9624244 Z"
         inkscape:connector-curvature="0"
         sodipodi:nodetypes="ccsscsssccccs"
         style="stroke-width:0.26458332" />
    </g>
    <rect
       style="opacity:1;fill:none;fill-opacity:1;stroke:#f173e5;stroke-width:10.1873188;stroke-linejoin:round;stroke-miterlimit:7;stroke-dasharray:none;stroke-opacity:1"
       id="rect10-3-0"
       width="195.06557"
       height="112.77248"
       x="-610.14288"
       y="-384.10272"
       transform="matrix(-0.99060425,-0.13675971,-0.13675971,0.99060425,0,0)" />
    <path
       style="fill:none;stroke:#f173e5;stroke-width:9.32680702;stroke-linecap:butt;stroke-linejoin:miter;stroke-miterlimit:4;stroke-dasharray:none;stroke-opacity:1"
       d="m 650.05683,-266.26312 -189.45896,-26.1561"
       id="path817-5-4"
       inkscape:connector-curvature="0" />
    <circle
       style="opacity:1;fill:none;fill-opacity:1;stroke:#f173e5;stroke-width:8.125;stroke-linejoin:round;stroke-miterlimit:4;stroke-dasharray:none;stroke-opacity:1"
       id="path819-6-5"
       cx="-572.59155"
       cy="-312.58856"
       r="27.999998"
       transform="matrix(-0.99060425,-0.13675971,-0.13675971,0.99060425,0,0)" />
    <circle
       style="opacity:1;fill:none;fill-opacity:1;stroke:#f173e5;stroke-width:8.125;stroke-linejoin:round;stroke-miterlimit:4;stroke-dasharray:none;stroke-opacity:1"
       id="path819-2-2-7"
       cx="-571.83557"
       cy="-312.58856"
       r="13"
       transform="matrix(-0.99060425,-0.13675971,-0.13675971,0.99060425,0,0)" />
    <rect
       style="opacity:1;fill:none;fill-opacity:1;stroke:#f173e5;stroke-width:7.01296377;stroke-linejoin:round;stroke-miterlimit:4;stroke-dasharray:none;stroke-opacity:1"
       id="rect854-7-8"
       width="45.713223"
       height="30.594181"
       x="-536.27551"
       y="-332.80826"
       transform="matrix(-0.99060425,-0.13675971,-0.13675971,0.99060425,0,0)" />
    <rect
       style="opacity:1;fill:none;fill-opacity:1;stroke:#f173e5;stroke-width:8.125;stroke-linejoin:round;stroke-miterlimit:4;stroke-dasharray:none;stroke-opacity:1"
       id="rect891-6-2"
       width="4"
       height="4"
       x="-532.49573"
       y="-290.87482"
       transform="matrix(-0.99060425,-0.13675971,-0.13675971,0.99060425,0,0)" />
    <rect
       style="opacity:1;fill:none;fill-opacity:1;stroke:#f173e5;stroke-width:8.125;stroke-linejoin:round;stroke-miterlimit:4;stroke-dasharray:none;stroke-opacity:1"
       id="rect891-8-2-1"
       width="4"
       height="4"
       x="-515.79688"
       y="-290.40701"
       transform="matrix(-0.99060425,-0.13675971,-0.13675971,0.99060425,0,0)" />
    <rect
       style="opacity:1;fill:none;fill-opacity:1;stroke:#f173e5;stroke-width:8.125;stroke-linejoin:round;stroke-miterlimit:4;stroke-dasharray:none;stroke-opacity:1"
       id="rect891-8-4-7-1"
       width="4"
       height="4"
       x="-497.65408"
       y="-290.40701"
       transform="matrix(-0.99060425,-0.13675971,-0.13675971,0.99060425,0,0)" />
    <path
       style="fill:none;stroke:#f173e5;stroke-width:8.125;stroke-linecap:butt;stroke-linejoin:miter;stroke-miterlimit:4;stroke-dasharray:none;stroke-opacity:1"
       d="m 629.37675,-298.87991 5.09099,-31.34831 -143.77915,-19.8497 -4.23874,30.70285"
       id="path923-0-9"
       inkscape:connector-curvature="0" />
    <circle
       style="opacity:1;fill:none;fill-opacity:1;stroke:#f173e5;stroke-width:8.125;stroke-linejoin:round;stroke-miterlimit:4;stroke-dasharray:none;stroke-opacity:1"
       id="path819-7-6-8"
       cx="-453.59158"
       cy="-312.58856"
       r="27.999998"
       transform="matrix(-0.99060425,-0.13675971,-0.13675971,0.99060425,0,0)" />
    <circle
       style="opacity:1;fill:none;fill-opacity:1;stroke:#f173e5;stroke-width:8.125;stroke-linejoin:round;stroke-miterlimit:4;stroke-dasharray:none;stroke-opacity:1"
       id="path819-2-1-8-1"
       cx="-452.8356"
       cy="-312.58856"
       r="13"
       transform="matrix(-0.99060425,-0.13675971,-0.13675971,0.99060425,0,0)" />
    <rect
       style="opacity:1;fill:none;fill-opacity:1;stroke:#f173e5;stroke-width:8.125;stroke-linejoin:round;stroke-miterlimit:4;stroke-dasharray:none;stroke-opacity:1"
       id="rect980-13-7"
       width="54.42857"
       height="6.0476193"
       x="-483.55881"
       y="-370.39209"
       transform="matrix(-0.99060425,-0.13675971,-0.13675971,0.99060425,0,0)" />
    <rect
       style="opacity:1;fill:none;fill-opacity:1;stroke:#f173e5;stroke-width:6.0515132;stroke-linejoin:round;stroke-miterlimit:4;stroke-dasharray:none;stroke-opacity:1"
       id="rect980-1-5-3"
       width="22.4842"
       height="8.1211061"
       x="-596.4765"
       y="-371.42886"
       transform="matrix(-0.99060425,-0.13675971,-0.13675971,0.99060425,0,0)" />
    <rect
       style="opacity:1;fill:none;fill-opacity:1;stroke:#f173e5;stroke-width:6.0515132;stroke-linejoin:round;stroke-miterlimit:4;stroke-dasharray:none;stroke-opacity:1"
       id="rect980-1-6-8-7"
       width="22.4842"
       height="8.1211061"
       x="-564.34851"
       y="-371.42886"
       transform="matrix(-0.99060425,-0.13675971,-0.13675971,0.99060425,0,0)" />
    <rect
       style="opacity:1;fill:none;fill-opacity:1;stroke:#f173e5;stroke-width:6.0515132;stroke-linejoin:round;stroke-miterlimit:4;stroke-dasharray:none;stroke-opacity:1"
       id="rect980-1-6-3-3-0"
       width="22.4842"
       height="8.1211061"
       x="-531.84253"
       y="-371.42886"
       transform="matrix(-0.99060425,-0.13675971,-0.13675971,0.99060425,0,0)" />
    <g
       id="use9594-9-5-6"
       style="fill:#f173e5;fill-opacity:1"
       transform="matrix(5.1220317,0,0,5.1220317,181.8314,-33.951439)">
      <title
         id="title15343-7-5">Beamed notes 32B</title>
      <path
         id="path15345-3-4"
         inkscape:connector-curvature="0"
         d="M 5.4343512,0 V 14.81926 C 4.689258,14.165024 3.2424899,14.071124 1.9632292,14.611509 0.39425007,15.27429 -0.32755972,16.639222 0.14112306,17.748806 0.60983257,18.858415 2.091314,19.292649 3.6602935,18.629868 5.1550835,17.99844 6.1869055,16.600091 5.8761789,15.509663 V 5.1722867 l 8.8180601,2.1621485 v 9.7332538 c -0.745226,-0.653786 -2.192179,-0.747475 -3.471096,-0.207222 -1.5690052,0.662781 -2.2903123,2.027687 -1.8216029,3.137297 0.4686829,1.10961 1.9501649,1.543844 3.5191699,0.881062 1.495372,-0.631719 2.527538,-2.0311 2.215356,-3.121765 V 2.2489583 Z M 5.8761789,1.55702 14.694239,3.8059783 V 4.454525 L 5.8761789,2.2923765 Z m 0,1.7631833 8.8180601,2.1621486 V 6.3066083 L 5.8761789,4.1444598 Z"
         style="stroke-width:0.26458332" />
    </g>
  </g>
</svg>
